<svg width="36" height="36" viewBox="0 0 36 36" fill="none" xmlns="http://www.w3.org/2000/svg">
<g clip-path="url(#clip0_43_97)">
<path d="M3.375 2.25C3.07663 2.25 2.79048 2.36853 2.5795 2.5795C2.36853 2.79048 2.25 3.07663 2.25 3.375V10.125C2.25 10.4234 2.13147 10.7095 1.9205 10.9205C1.70952 11.1315 1.42337 11.25 1.125 11.25C0.826631 11.25 0.540483 11.1315 0.329505 10.9205C0.118526 10.7095 0 10.4234 0 10.125V3.375C0 2.47989 0.355579 1.62145 0.988515 0.988515C1.62145 0.355579 2.47989 0 3.375 0L10.125 0C10.4234 0 10.7095 0.118526 10.9205 0.329505C11.1315 0.540483 11.25 0.826631 11.25 1.125C11.25 1.42337 11.1315 1.70952 10.9205 1.9205C10.7095 2.13147 10.4234 2.25 10.125 2.25H3.375ZM24.75 1.125C24.75 0.826631 24.8685 0.540483 25.0795 0.329505C25.2905 0.118526 25.5766 0 25.875 0L32.625 0C33.5201 0 34.3786 0.355579 35.0115 0.988515C35.6444 1.62145 36 2.47989 36 3.375V10.125C36 10.4234 35.8815 10.7095 35.6705 10.9205C35.4595 11.1315 35.1734 11.25 34.875 11.25C34.5766 11.25 34.2905 11.1315 34.0795 10.9205C33.8685 10.7095 33.75 10.4234 33.75 10.125V3.375C33.75 3.07663 33.6315 2.79048 33.4205 2.5795C33.2095 2.36853 32.9234 2.25 32.625 2.25H25.875C25.5766 2.25 25.2905 2.13147 25.0795 1.9205C24.8685 1.70952 24.75 1.42337 24.75 1.125ZM1.125 24.75C1.42337 24.75 1.70952 24.8685 1.9205 25.0795C2.13147 25.2905 2.25 25.5766 2.25 25.875V32.625C2.25 32.9234 2.36853 33.2095 2.5795 33.4205C2.79048 33.6315 3.07663 33.75 3.375 33.75H10.125C10.4234 33.75 10.7095 33.8685 10.9205 34.0795C11.1315 34.2905 11.25 34.5766 11.25 34.875C11.25 35.1734 11.1315 35.4595 10.9205 35.6705C10.7095 35.8815 10.4234 36 10.125 36H3.375C2.47989 36 1.62145 35.6444 0.988515 35.0115C0.355579 34.3786 0 33.5201 0 32.625L0 25.875C0 25.5766 0.118526 25.2905 0.329505 25.0795C0.540483 24.8685 0.826631 24.75 1.125 24.75ZM34.875 24.75C35.1734 24.75 35.4595 24.8685 35.6705 25.0795C35.8815 25.2905 36 25.5766 36 25.875V32.625C36 33.5201 35.6444 34.3786 35.0115 35.0115C34.3786 35.6444 33.5201 36 32.625 36H25.875C25.5766 36 25.2905 35.8815 25.0795 35.6705C24.8685 35.4595 24.75 35.1734 24.75 34.875C24.75 34.5766 24.8685 34.2905 25.0795 34.0795C25.2905 33.8685 25.5766 33.75 25.875 33.75H32.625C32.9234 33.75 33.2095 33.6315 33.4205 33.4205C33.6315 33.2095 33.75 32.9234 33.75 32.625V25.875C33.75 25.5766 33.8685 25.2905 34.0795 25.0795C34.2905 24.8685 34.5766 24.75 34.875 24.75Z" fill="#09F2EA"/>
<path d="M6.75 31.5C6.75 31.5 4.5 31.5 4.5 29.25C4.5 27 6.75 20.25 18 20.25C29.25 20.25 31.5 27 31.5 29.25C31.5 31.5 29.25 31.5 29.25 31.5H6.75ZM24.75 11.25C24.75 13.0402 24.0388 14.7571 22.773 16.023C21.5071 17.2888 19.7902 18 18 18C16.2098 18 14.4929 17.2888 13.227 16.023C11.9612 14.7571 11.25 13.0402 11.25 11.25C11.25 9.45979 11.9612 7.7429 13.227 6.47703C14.4929 5.21116 16.2098 4.5 18 4.5C19.7902 4.5 21.5071 5.21116 22.773 6.47703C24.0388 7.7429 24.75 9.45979 24.75 11.25Z" fill="#09F2EA"/>
</g>
<defs>
<clipPath id="clip0_43_97">
<rect width="36" height="36" fill="white"/>
</clipPath>
</defs>
</svg>
